{"title":"MonsterWolf-AC3-XviD-DVDRip 2010 TBS","uid":6183461,"size":1593226547,"categoryP":"video","categoryS":"movies","magnet":"?xt=urn:btih:d0259fa141be6f63cd083ec6cdeb0abb330af562&amp;dn=MonsterWolf-AC3-XviD-DVDRip+2010+TBS&amp;tr=udp%3A%2F%2Ftracker.openbittorrent.com%3A80&amp;tr=udp%3A%2F%2Fopen.demonii.com%3A1337&amp;tr=udp%3A%2F%2Ftracker.coppersurfer.tk%3A6969&amp;tr=udp%3A%2F%2Fexodus.desync.com%3A6969","seeders":0,"leechers":1,"uploader":"FatFreddy30","files":-1,"time":1297987923,"description":"Monsterwolf is set in the small Louisiana town of Crowley where the Holter Oil Company are illegally drilling for oil, at dig site three the men come across a strange Native American relic &amp; get orders from the boss Stark (Robert Picardo) to blow it up. After detonating a load of C4 explosive the relic remains intact &amp; the evil spirit of an ancient Indian tribe leader is summoned &amp; manifests itself as a Monsterwolf! With Monsterwolf having killed all the men on site Stark panics that the deal for the oil rights might be lost so hires junior lawyer Maria Bennet (Leonor Varela) to handle the legal side of things &amp; try to persuade the town that Holter Oil will benefit them financially, having grew up in Crowley Maria feels she can influence the town. However the Monsterwolf continues to kill all those associated with Holter Oil as it tries to protect the town &amp; th surrounding land...\n &lt;a href=&quot;\nhttp://www.imdb.com/title/tt1535608/&quot; rel=&quot;nofollow&quot; target=&quot;_NEW&quot;&gt;\nhttp://www.imdb.com/title/tt1535608/&lt;/a&gt;\n\nSubs: Dutch (srt).\n\n\nEen oeroud legendarisch wezen in de vorm van een wolf heeft de taak zijn land te beschermen en doodt iedereen die dreigt hem iets te doen. Het wezen wordt gevreesd door de lokale inwoners maar is tevens beroemd. Maar dan worden ze getroffen door een dodelijke vloek waardoor ze moeten samen werken zodat ze de geest van de wolf kunnen vangen, anders zullen ze het niet overleven..\n &lt;a href=&quot;\nhttp://www.moviemeter.nl/film/69611&quot; rel=&quot;nofollow&quot; target=&quot;_NEW&quot;&gt;\nhttp://www.moviemeter.nl/film/69611&lt;/a&gt;\n\nOndertitels: Nederlands (srt).\n\nGeneral\nComplete name                    : MonsterWolf-AC3-XviD-DVDRip 2010 TBS\\MonsterWolf-AC3-XviD-DVDRip 2010 TBS.avi\nFormat                           : AVI\nFormat/Info                      : Audio Video Interleave\nFile size                        : 1.46 GiB\nDuration                         : 1h 26mn\nOverall bit rate                 : 2 416 Kbps\nWriting application              : VirtualDubMod 1.5.4.1 (build 2178/release)\nWriting library                  : VirtualDubMod build 2178/release\nSource                           : Dutch Pal Retail 2010\n\nVideo\nID                               : 0\nFormat                           : MPEG-4 Visual\nFormat profile                   : Simple@L3\nFormat settings, BVOP            : No\nFormat settings, QPel            : No\nFormat settings, GMC             : No warppoints\nFormat settings, Matrix          : Default (H.263)\nCodec ID                         : XVID\nCodec ID/Hint                    : XviD\nDuration                         : 1h 26mn\nBit rate                         : 1 958 Kbps\nWidth                            : 720 pixels\nHeight                           : 400 pixels\nDisplay aspect ratio             : 16:9\nFrame rate                       : 25.000 fps\nResolution                       : 8 bits\nColorimetry                      : 4:2:0\nScan type                        : Progressive\nBits/(Pixel*Frame)               : 0.272\nStream size                      : 1.18 GiB (81%)\nWriting library                  : XviD 1.1.2 (UTC 2006-11-01)\n\nAudio\nID                               : 1\nFormat                           : AC-3\nFormat/Info                      : Audio Coding 3\nCodec ID                         : 2000\nDuration                         : 1h 26mn\nBit rate mode                    : Constant\nBit rate                         : 448 Kbps\nChannel(s)                       : 6 channels\nChannel positions                : Front: L C R, Surround: L R, LFE\nSampling rate                    : 48.0 KHz\nStream size                      : 277 MiB (19%)\nAlignment                        : Split accross interleaves\nInterleave, duration             : 40 ms (1.00 video frame)\nInterleave, preload duration     : 500 ms\n\nThanks to Treinstel &amp; Just4fun-Team.\n\nTBS.","torrent":{"xt":"urn:btih:d0259fa141be6f63cd083ec6cdeb0abb330af562","amp;dn":"MonsterWolf-AC3-XviD-DVDRip+2010+TBS","amp;tr":["udp%3A%2F%2Ftracker.openbittorrent.com%3A80","udp%3A%2F%2Fopen.demonii.com%3A1337","udp%3A%2F%2Ftracker.coppersurfer.tk%3A6969","udp%3A%2F%2Fexodus.desync.com%3A6969"],"infoHash":"d0259fa141be6f63cd083ec6cdeb0abb330af562","infoHashBuffer":{"type":"Buffer","data":[208,37,159,161,65,190,111,99,205,8,62,198,205,235,10,187,51,10,245,98]},"announce":[],"urlList":[]}}